# xmcd
#
# Track frame offsets: 
#        150
#        18682
#        32470
#
# Disc length: 710 seconds
#
# Revision: 0
# Processed by: cddbd v1.5.2PL0 Copyright (c) Steve Scherf et al.
# Submitted via: ExactAudioCopy v0.95b3
#
DISCID=1a02c403
DTITLE=Herbert Grönemeyer - Lied 1 - Stück vom Himmel
DYEAR=2007
DGENRE=Rock
TTITLE0=Lied 1 - Stück vom Himmel
TTITLE1=Lied 7 - Zur Nacht
TTITLE2=Lied 1 - Stück vom Himmel (Involtinis Remix)
EXTD=
EXTT0=
EXTT1=
EXTT2=
PLAYORDER=
